<?xml version="1.0" encoding="UTF-8" standalone="no"?>
<!-- Created with Inkscape (http://www.inkscape.org/) -->

<svg
   width="1193.4801"
   height="339.91513"
   viewBox="0 0 315.77494 89.935877"
   version="1.1"
   id="svg29134"
   xml:space="preserve"
   xmlns="http://www.w3.org/2000/svg"
   xmlns:svg="http://www.w3.org/2000/svg"><defs
     id="defs29131" /><g
     id="layer1"
     transform="translate(-163.38351,-85.938744)"><rect
       style="fill:#718163;fill-opacity:1;stroke-width:1.70193"
       id="rect35816"
       width="315.77493"
       height="89.935883"
       x="163.38351"
       y="85.938744" /><g
       aria-label="FAIRCROP"
       id="text20869"
       style="font-size:63.5px;font-family:'Lexend Mega';-inkscape-font-specification:'Lexend Mega';fill:#687f79;stroke-width:2"
       transform="matrix(0.6049731,0,0,0.6721497,173.18318,58.71923)"><path
         d="M 34.821491,129.62288 V 85.172879 h 6.858 v 44.450001 z m 2.54,-18.542 v -6.604 h 28.321 v 6.604 z m 0.5715,-19.304001 v -6.604 h 30.607 v 6.604 z"
         id="path22139"
         style="fill:#d5e085;fill-opacity:1" /><path
         d="m 79.652427,129.62288 20.066,-44.450001 h 7.683503 l 19.939,44.450001 h -7.493 l -13.208,-29.21 q -0.381,-0.952501 -0.9525,-2.286001 -0.5715,-1.397 -1.2065,-2.8575 -0.5715,-1.4605 -1.143,-2.921 -0.508,-1.4605 -0.889,-2.6035 l 1.8415,-0.0635 q -0.508,1.3335 -1.0795,2.794 -0.508,1.4605 -1.0795,2.921 -0.5715,1.397 -1.143,2.7305 -0.5715,1.3335 -1.079503,2.540001 l -13.1445,28.956 z m 8.763,-10.668 2.667,-6.604 h 24.130003 l 1.778,6.604 z"
         style="fill:#e9eeb1;fill-opacity:1"
         id="path22141" /><path
         d="m 141.05687,129.62288 v -6.604 h 9.9695 V 91.776879 h -9.9695 v -6.604 h 26.8605 v 6.604 h -10.033 v 31.242001 h 10.033 v 6.604 z"
         style="fill:#e9eeb1;fill-opacity:1"
         id="path22143" /><path
         d="M 186.96736,129.62288 V 85.172879 h 23.4315 q 3.8735,0 7.112,1.8415 3.2385,1.8415 5.207,5.0165 1.9685,3.1115 1.9685,6.985 0,3.873501 -2.0955,7.112001 -2.032,3.175 -5.461,5.08 -3.429,1.905 -7.5565,1.905 h -15.748 v 16.51 z m 31.496,0 -13.716,-20.066 7.239,-1.5875 14.986,21.717 z m -24.638,-23.114 h 15.5575 q 2.2225,0 4.064,-1.016 1.8415,-1.016 2.921,-2.7305 1.0795,-1.7145 1.0795,-3.746501 0,-2.0955 -1.143,-3.683 -1.143,-1.651 -3.175,-2.6035 -1.9685,-0.9525 -4.3815,-0.9525 h -14.9225 z"
         id="path22145"
         style="fill:#d5e085;fill-opacity:1" /><path
         d="m 263.9928,130.25788 q -5.08,0 -9.4615,-1.5875 -4.3815,-1.651 -7.6835,-4.699 -3.2385,-3.048 -5.08,-7.239 -1.8415,-4.2545 -1.8415,-9.3345 0,-4.826 1.905,-8.953501 1.9685,-4.1275 5.2705,-7.1755 3.3655,-3.1115 7.747,-4.7625 4.3815,-1.7145 9.3345,-1.7145 3.937,0 7.5565,1.0795 3.6195,1.0795 6.5405,2.794 2.9845,1.651 4.826,3.6195 l -4.2545,5.461 q -2.159,-1.905 -4.5085,-3.2385 -2.286,-1.397 -4.953,-2.159 -2.6035,-0.762 -5.588,-0.762 -3.302,0 -6.35,1.143 -2.9845,1.0795 -5.3975,3.175 -2.3495,2.0955 -3.7465,5.016501 -1.397,2.921 -1.397,6.477 0,3.8735 1.397,6.858 1.4605,2.9845 3.937,5.08 2.4765,2.032 5.6515,3.1115 3.2385,1.0795 6.858,1.0795 3.175,0 5.7785,-0.8255 2.667,-0.889 4.826,-2.159 2.159,-1.3335 3.8735,-2.794 l 3.3655,5.6515 q -1.651,1.5875 -4.572,3.175 -2.8575,1.5875 -6.477,2.667 -3.6195,1.016 -7.5565,1.016 z"
         id="path22147"
         style="fill:#d5e085;fill-opacity:1" /><path
         d="M 298.66378,129.62288 V 85.172879 h 23.4315 q 3.8735,0 7.112,1.8415 3.2385,1.8415 5.207,5.0165 1.9685,3.1115 1.9685,6.985 0,3.873501 -2.0955,7.112001 -2.032,3.175 -5.461,5.08 -3.429,1.905 -7.5565,1.905 h -15.748 v 16.51 z m 31.496,0 -13.716,-20.066 7.239,-1.5875 14.986,21.717 z m -24.638,-23.114 h 15.5575 q 2.2225,0 4.064,-1.016 1.8415,-1.016 2.921,-2.7305 1.0795,-1.7145 1.0795,-3.746501 0,-2.0955 -1.143,-3.683 -1.143,-1.651 -3.175,-2.6035 -1.9685,-0.9525 -4.3815,-0.9525 h -14.9225 z"
         id="path22149"
         style="fill:#d5e085;fill-opacity:1" /><path
         d="m 376.64174,130.25788 q -5.461,0 -10.033,-1.7145 -4.5085,-1.778 -7.9375,-4.8895 -3.3655,-3.1115 -5.207,-7.239 -1.8415,-4.191 -1.8415,-9.017 0,-4.826 1.8415,-8.953501 1.8415,-4.191 5.207,-7.3025 3.429,-3.1115 7.9375,-4.826 4.572,-1.778 10.033,-1.778 5.461,0 9.9695,1.7145 4.572,1.7145 7.9375,4.8895 3.429,3.1115 5.2705,7.3025 1.905,4.127501 1.905,8.953501 0,4.826 -1.905,9.017 -1.8415,4.1275 -5.2705,7.3025 -3.3655,3.1115 -7.9375,4.826 -4.5085,1.7145 -9.9695,1.7145 z m 0,-6.6675 q 4.0005,0 7.239,-1.2065 3.302,-1.27 5.715,-3.429 2.4765,-2.2225 3.81,-5.1435 1.3335,-2.9845 1.3335,-6.4135 0,-3.429 -1.3335,-6.35 -1.3335,-2.984501 -3.81,-5.143501 -2.413,-2.2225 -5.715,-3.429 -3.2385,-1.27 -7.239,-1.27 -3.937,0 -7.239,1.27 -3.302,1.2065 -5.7785,3.3655 -2.413,2.159 -3.7465,5.143501 -1.27,2.921 -1.27,6.4135 0,3.429 1.27,6.4135 1.3335,2.9845 3.7465,5.1435 2.4765,2.159 5.7785,3.429 3.302,1.2065 7.239,1.2065 z"
         id="path22151"
         style="fill:#d5e085;fill-opacity:1" /><path
         d="M 417.66271,129.62288 V 85.172879 h 23.114 q 3.81,0 6.985,1.8415 3.175,1.778 5.08,4.8895 1.905,3.1115 1.905,6.9215 0,3.937001 -2.032,7.175501 -2.032,3.175 -5.3975,5.08 -3.302,1.905 -7.366,1.905 h -15.4305 v 16.637 z m 6.858,-23.241 h 14.986 q 2.159,0 4.0005,-1.016 1.8415,-1.0795 2.921,-2.794 1.0795,-1.7145 1.0795,-3.746501 0,-1.9685 -1.0795,-3.556 -1.0795,-1.5875 -2.921,-2.54 -1.8415,-0.9525 -4.0005,-0.9525 h -14.986 z"
         id="path22153"
         style="fill:#d5e085;fill-opacity:1" /></g></g></svg>
